<svg height="480pt" viewBox="-40 0 480 480" width="480pt" xmlns="http://www.w3.org/2000/svg"><path d="m331.34375 247.734375c8.414062-22.976563 12.699219-47.261719 12.65625-71.734375 0-97.039062-64.558594-176-144-176s-144 78.960938-144 176c-.042969 24.472656 4.242188 48.757812 12.65625 71.734375-40.59375 47.5625-68.65625 112.394531-68.65625 159.304687 0 48.402344 29.601562 72.960938 88 72.960938h224c58.398438 0 88-24.558594 88-72.960938 0-46.910156-28.0625-111.742187-68.65625-159.304687zm0 0"/><path d="m200 32c-57.28125 0-105.441406 54.71875-112 127.28125-.800781 8.957031 8.960938 12.160156 21.28125 16.238281 3.636719 1.121094 7.214844 2.429688 10.71875 3.921875.960938 79.039063 35.761719 140.558594 80 140.558594s79.039062-61.519531 80-140.558594c3.503906-1.492187 7.082031-2.800781 10.71875-3.921875 12.320312-4.078125 22.082031-7.28125 21.28125-16.238281-6.558594-72.5625-54.71875-127.28125-112-127.28125zm0 0" fill="#f2f2f2"/><path d="m232 200c0 17.679688-7.679688 80-32 80s-32-62.320312-32-80c0-35.441406 17.199219-48 32-48s32 12.558594 32 48zm0 0"/><path d="m275.863281 135.28125c-4.820312 5.613281-11.878906 8.804688-19.277343 8.71875-11.160157-.546875-21.542969-5.882812-28.480469-14.640625-13.921875-16.238281-16.160157-39.039063-5.042969-52 2.355469-3.203125 6.03125-5.171875 10-5.359375.507812-.015625 1.019531.011719 1.523438.078125 6.796874 1.042969 9.679687 7.523437 12.71875 14.320313 2.003906 5.289062 4.777343 10.25 8.238281 14.722656 3.585937 3.773437 7.746093 6.957031 12.320312 9.4375 5.359375 3.203125 10.960938 6.5625 12 12.960937.527344 4.324219-.945312 8.652344-4 11.761719zm0 0"/><path d="m171.894531 129.359375c-6.9375 8.757813-17.320312 14.09375-28.480469 14.640625-7.398437.085938-14.457031-3.105469-19.277343-8.71875-3.054688-3.109375-4.527344-7.4375-4-11.761719 1.039062-6.398437 6.640625-9.757812 12-12.960937 4.574219-2.480469 8.734375-5.664063 12.320312-9.4375 3.460938-4.472656 6.234375-9.433594 8.238281-14.722656 3.039063-6.796876 5.921876-13.277344 12.71875-14.320313 4.507813-.414063 8.894532 1.597656 11.523438 5.28125 11.117188 12.960937 8.878906 35.761719-5.042969 52zm0 0"/></svg>